<svg width="1440" height="191" viewBox="0 0 1440 191" fill="none" xmlns="http://www.w3.org/2000/svg">
<g clip-path="url(#clip0_1_50)">
<path d="M-11.2117 126.974L1450.05 0.888781L1474.29 281.845L13.0305 407.93L-11.2117 126.974Z" fill="#F2F1EF"/>
<path d="M-461.553 -104.168L5588.48 -626.194L5623.55 -219.705L-426.479 302.321L-461.553 -104.168Z" fill="#161513"/>
<g clip-path="url(#clip1_1_50)">
<path d="M178.248 136.723L180.318 143.578L186.046 139.137L182.57 145.437L189.805 146.264L182.819 148.319L187.323 153.931L180.919 150.537L180.053 157.645L177.983 150.79L172.254 155.231L175.731 148.931L168.495 148.103L175.482 146.048L170.978 140.437L177.382 143.831L178.248 136.723Z" fill="#E94D35"/>
</g>
<g clip-path="url(#clip2_1_50)">
<path d="M636.079 99.2262L638.149 106.081L643.878 101.64L640.401 107.94L647.637 108.768L640.65 110.823L645.154 116.434L638.75 113.04L637.884 120.148L635.814 113.293L630.086 117.735L633.562 111.434L626.327 110.607L633.314 108.552L628.809 102.94L635.214 106.335L636.079 99.2262Z" fill="#E94D35"/>
</g>
<path d="M45.7297 153.577L47.0567 153.463L47.5426 159.094L54.4649 158.496L53.979 152.865L55.3061 152.751L56.3892 165.304L55.0622 165.419L54.567 159.68L47.6447 160.277L48.1399 166.016L46.8128 166.13L45.7297 153.577ZM61.365 153.384L57.3838 153.728L57.2848 152.58L66.5743 151.778L66.6733 152.926L62.6921 153.27L63.6762 164.675L62.3491 164.79L61.365 153.384ZM68.5492 151.608L69.8224 151.498L75.0253 159.45L78.6636 150.735L79.9369 150.625L81.02 163.179L79.7109 163.292L78.8413 153.213L75.8129 160.412C75.702 160.663 75.6029 160.84 75.5155 160.944C75.4271 161.036 75.3231 161.087 75.2035 161.097L74.809 161.131L70.0718 153.97L70.9415 164.048L69.6323 164.161L68.5492 151.608ZM85.0536 162.831C84.683 162.863 84.3873 162.786 84.1665 162.6C83.9457 162.414 83.8194 162.136 83.7874 161.766L82.8048 150.378L84.1319 150.264L85.1129 161.633L91.9276 161.045L92.0297 162.229L85.0536 162.831ZM96.8943 161.954C95.8781 162.041 95.0328 161.807 94.3585 161.251C93.6832 160.683 93.3022 159.897 93.2156 158.893L94.5068 158.781C94.5635 159.439 94.8002 159.948 95.2168 160.31C95.6334 160.671 96.1585 160.825 96.7922 160.77L98.5138 160.622C99.2072 160.562 99.7456 160.31 100.129 159.868C100.523 159.412 100.691 158.844 100.632 158.162L100.536 157.05C100.482 156.417 100.217 155.928 99.7412 155.583C99.2778 155.238 98.6934 155.096 97.988 155.156L93.3792 155.554L92.8577 149.511L100.695 148.834L100.797 150.018L94.2869 150.58L94.6041 154.256L97.8859 153.973C98.9978 153.877 99.9143 154.099 100.635 154.639C101.368 155.178 101.778 155.944 101.863 156.936L101.959 158.048C102.018 158.729 101.915 159.346 101.649 159.899C101.395 160.439 101.005 160.876 100.48 161.211C99.9545 161.545 99.3333 161.743 98.6159 161.805L96.8943 161.954ZM108.216 148.185L114.296 147.661C115.228 147.58 115.998 147.779 116.605 148.256C117.225 148.733 117.571 149.402 117.646 150.262L117.805 152.11C117.885 153.03 117.644 153.804 117.084 154.43C116.523 155.045 115.746 155.395 114.754 155.48L110.216 155.872L110.626 160.624L109.299 160.739L108.216 148.185ZM114.616 154.3C115.225 154.247 115.701 154.032 116.041 153.653C116.381 153.262 116.525 152.774 116.475 152.188L116.316 150.341C116.273 149.851 116.072 149.471 115.711 149.201C115.362 148.918 114.912 148.8 114.362 148.848L109.645 149.254L110.114 154.688L114.616 154.3ZM124.304 159.589C123.539 159.655 122.849 159.545 122.235 159.261C121.619 158.965 121.123 158.52 120.746 157.926C120.369 157.32 120.145 156.611 120.075 155.798L119.335 147.226L120.662 147.111L121.405 155.719C121.48 156.592 121.774 157.278 122.287 157.775C122.799 158.261 123.437 158.471 124.202 158.405L126.139 158.238C126.904 158.172 127.497 157.856 127.918 157.289C128.338 156.711 128.51 155.986 128.435 155.113L127.692 146.505L129.019 146.39L129.759 154.963C129.829 155.776 129.73 156.513 129.462 157.174C129.193 157.824 128.78 158.347 128.224 158.744C127.668 159.13 127.006 159.355 126.241 159.421L124.304 159.589ZM136.667 158.522C135.843 158.593 135.103 158.47 134.45 158.153C133.807 157.823 133.282 157.326 132.876 156.663C132.481 155.998 132.245 155.218 132.168 154.321L131.846 150.591C131.768 149.694 131.874 148.89 132.162 148.179C132.46 147.455 132.91 146.874 133.511 146.436C134.111 145.999 134.824 145.745 135.649 145.674L137.55 145.51C138.339 145.442 139.047 145.549 139.674 145.832C140.312 146.115 140.825 146.546 141.213 147.127C141.6 147.708 141.828 148.393 141.896 149.182L140.605 149.293C140.531 148.444 140.222 147.785 139.675 147.314C139.14 146.83 138.465 146.623 137.652 146.693L135.751 146.857C134.891 146.932 134.224 147.302 133.752 147.969C133.278 148.625 133.085 149.46 133.173 150.476L133.495 154.207C133.582 155.223 133.904 156.02 134.46 156.598C135.027 157.164 135.728 157.41 136.565 157.338L138.502 157.171C139.351 157.098 140.013 156.746 140.489 156.114C140.964 155.483 141.161 154.689 141.078 153.733L140.985 152.657L137.506 152.957L137.406 151.791L142.176 151.38L142.369 153.622C142.444 154.482 142.336 155.262 142.047 155.962C141.769 156.648 141.329 157.204 140.728 157.629C140.137 158.042 139.429 158.284 138.604 158.355L136.667 158.522Z" fill="white"/>
<path d="M486.487 128.193C486.14 128.223 485.85 128.14 485.616 127.943C485.382 127.747 485.25 127.475 485.22 127.128L484.238 115.74L489.546 115.282C490.61 115.191 491.487 115.374 492.177 115.832C492.878 116.278 493.265 116.919 493.337 117.756L493.419 118.706C493.457 119.149 493.392 119.582 493.224 120.006C493.055 120.418 492.801 120.759 492.463 121.029L492.464 121.047C493.064 121.152 493.556 121.416 493.942 121.841C494.339 122.252 494.563 122.757 494.615 123.355L494.689 124.215C494.774 125.196 494.531 126.012 493.961 126.663C493.39 127.303 492.572 127.668 491.508 127.76L486.487 128.193ZM490.394 120.918C490.956 120.87 491.389 120.658 491.694 120.282C492.01 119.894 492.142 119.407 492.092 118.821L492.01 117.87C491.968 117.392 491.726 117.028 491.283 116.777C490.851 116.513 490.306 116.409 489.648 116.466L485.667 116.81L486.054 121.293L490.394 120.918ZM491.227 126.592C491.944 126.53 492.49 126.296 492.864 125.89C493.25 125.472 493.416 124.952 493.362 124.33L493.288 123.469C493.244 122.967 493.031 122.582 492.646 122.314C492.261 122.034 491.775 121.919 491.189 121.97L486.15 122.405L486.546 126.996L491.227 126.592ZM501.045 127.082C500.22 127.153 499.475 127.03 498.809 126.714C498.144 126.399 497.602 125.915 497.184 125.265C496.779 124.613 496.538 123.839 496.46 122.942L496.129 119.105C496.052 118.208 496.157 117.404 496.445 116.693C496.745 115.98 497.195 115.411 497.797 114.986C498.399 114.561 499.118 114.312 499.955 114.24L501.856 114.076C502.693 114.004 503.444 114.125 504.11 114.441C504.775 114.757 505.311 115.241 505.716 115.893C506.134 116.543 506.381 117.317 506.459 118.213L506.79 122.051C506.867 122.948 506.756 123.752 506.456 124.465C506.167 125.164 505.716 125.733 505.104 126.171C504.502 126.597 503.789 126.845 502.964 126.916L501.045 127.082ZM502.826 125.736C503.699 125.66 504.378 125.295 504.863 124.638C505.348 123.982 505.548 123.158 505.463 122.166L505.132 118.328C505.046 117.336 504.708 116.558 504.117 115.994C503.527 115.431 502.795 115.187 501.922 115.262L500.093 115.42C499.22 115.496 498.541 115.861 498.056 116.517C497.57 117.174 497.37 117.998 497.456 118.99L497.787 122.828C497.873 123.82 498.205 124.599 498.784 125.163C499.374 125.726 500.106 125.97 500.979 125.895L502.826 125.736ZM513.532 126.004C512.707 126.075 511.962 125.953 511.296 125.637C510.63 125.321 510.089 124.838 509.671 124.187C509.266 123.536 509.024 122.762 508.947 121.865L508.616 118.027C508.538 117.131 508.644 116.327 508.932 115.615C509.232 114.903 509.682 114.334 510.284 113.909C510.886 113.483 511.605 113.235 512.442 113.162L514.343 112.998C515.18 112.926 515.931 113.048 516.597 113.364C517.262 113.68 517.798 114.164 518.203 114.815C518.621 115.466 518.868 116.239 518.945 117.136L519.277 120.974C519.354 121.87 519.243 122.675 518.943 123.387C518.654 124.087 518.203 124.656 517.591 125.094C516.989 125.519 516.276 125.767 515.451 125.839L513.532 126.004ZM515.313 124.658C516.185 124.583 516.864 124.217 517.35 123.561C517.835 122.905 518.035 122.081 517.95 121.088L517.618 117.25C517.533 116.258 517.195 115.48 516.604 114.917C516.013 114.354 515.282 114.11 514.409 114.185L512.58 114.343C511.707 114.418 511.028 114.784 510.543 115.44C510.057 116.096 509.857 116.92 509.943 117.913L510.274 121.751C510.36 122.743 510.692 123.521 511.27 124.086C511.861 124.649 512.593 124.893 513.466 124.818L515.313 124.658ZM523.691 113.493L519.71 113.836L519.611 112.688L528.9 111.887L528.999 113.035L525.018 113.378L526.002 124.784L524.675 124.898L523.691 113.493ZM534.901 124.16C534.183 124.222 533.537 124.128 532.961 123.876C532.384 123.613 531.917 123.219 531.558 122.696C531.211 122.16 531.006 121.527 530.943 120.798L532.234 120.687C532.298 121.428 532.565 122.013 533.036 122.442C533.517 122.858 534.117 123.036 534.834 122.974L536.825 122.802C537.53 122.741 538.085 122.537 538.488 122.189C538.891 121.829 539.07 121.392 539.026 120.878L538.927 119.73C538.891 119.323 538.7 118.991 538.353 118.732C538.017 118.471 537.571 118.323 537.013 118.287L533.739 118.028C532.817 117.951 532.084 117.689 531.539 117.242C530.995 116.795 530.691 116.201 530.627 115.46L530.543 114.491C530.468 113.618 530.731 112.897 531.332 112.327C531.944 111.745 532.788 111.407 533.864 111.314L535.891 111.139C536.907 111.051 537.753 111.292 538.428 111.86C539.102 112.416 539.483 113.196 539.57 114.2L538.278 114.312C538.222 113.654 537.985 113.144 537.568 112.783C537.152 112.421 536.627 112.268 535.993 112.323L533.966 112.498C533.285 112.556 532.754 112.759 532.375 113.105C531.994 113.439 531.826 113.863 531.87 114.377L531.954 115.345C531.99 115.764 532.17 116.103 532.493 116.364C532.829 116.625 533.27 116.779 533.816 116.828L537.074 117.107C538.021 117.194 538.772 117.455 539.328 117.889C539.882 118.311 540.191 118.886 540.254 119.615L540.353 120.763C540.428 121.636 540.154 122.37 539.531 122.966C538.907 123.55 538.051 123.889 536.963 123.982L534.901 124.16ZM544.742 111.676L540.76 112.02L540.661 110.872L549.951 110.07L550.05 111.218L546.069 111.562L547.053 122.967L545.726 123.082L544.742 111.676ZM551.926 109.9L558.023 109.374C558.944 109.294 559.702 109.494 560.297 109.973C560.903 110.438 561.243 111.095 561.316 111.944L561.429 113.253C561.484 113.887 561.329 114.467 560.965 114.992C560.6 115.505 560.085 115.893 559.421 116.155L559.423 116.173C559.798 116.333 560.147 116.61 560.47 117.004C560.805 117.396 561.073 117.849 561.274 118.362L562.55 121.63L561.187 121.748L559.911 118.479C559.693 117.908 559.359 117.461 558.91 117.138C558.472 116.815 558.009 116.674 557.518 116.716L553.878 117.031L554.336 122.339L553.009 122.453L551.926 109.9ZM558.08 115.476C558.737 115.419 559.249 115.2 559.613 114.819C559.989 114.426 560.152 113.942 560.102 113.368L559.983 111.987C559.942 111.509 559.747 111.14 559.4 110.881C559.052 110.622 558.615 110.515 558.089 110.561L553.355 110.969L553.776 115.847L558.08 115.476ZM571.492 117.354L565.986 117.829L564.995 121.419L563.633 121.537L567.373 108.567L567.983 108.515C568.378 108.48 568.685 108.695 568.906 109.158L572.293 116.164L572.311 116.163L572.314 116.199L574.446 120.604L573.083 120.721L571.492 117.354ZM566.303 116.681L570.984 116.277L568.114 110.238L568.096 110.239L566.303 116.681ZM575.201 107.892L581.28 107.367C582.213 107.287 582.983 107.485 583.59 107.963C584.209 108.439 584.556 109.108 584.63 109.969L584.789 111.816C584.869 112.737 584.629 113.51 584.068 114.137C583.507 114.751 582.73 115.101 581.738 115.187L577.201 115.578L577.611 120.331L576.284 120.445L575.201 107.892ZM581.6 114.006C582.21 113.954 582.685 113.738 583.026 113.359C583.365 112.969 583.51 112.48 583.459 111.895L583.3 110.047C583.258 109.557 583.056 109.177 582.696 108.907C582.346 108.624 581.896 108.506 581.346 108.554L576.63 108.961L577.099 114.395L581.6 114.006Z" fill="white"/>
<path d="M990.779 73.1899L986.798 73.5334L986.699 72.3857L995.989 71.5842L996.088 72.7319L992.106 73.0754L993.09 84.481L991.763 84.5955L990.779 73.1899ZM1002.11 78.8428L996.816 71.5128L998.25 71.389L1002.67 77.5841L1005.96 70.7236L1007.4 70.5998L1003.44 78.7283L1003.85 83.5524L1002.53 83.6669L1002.11 78.8428ZM1009.12 70.4512L1015.2 69.9266C1016.13 69.8461 1016.9 70.0447 1017.51 70.5223C1018.13 70.9988 1018.47 71.6675 1018.55 72.5283L1018.71 74.3754C1018.79 75.296 1018.55 76.0695 1017.99 76.696C1017.43 77.3105 1016.65 77.6606 1015.66 77.7462L1011.12 78.1377L1011.53 82.89L1010.2 83.0045L1009.12 70.4512ZM1015.52 76.5657C1016.13 76.5131 1016.6 76.2974 1016.94 75.9187C1017.28 75.5281 1017.43 75.0399 1017.38 74.454L1017.22 72.6069C1017.18 72.1167 1016.97 71.7366 1016.61 71.4666C1016.26 71.1836 1015.81 71.0659 1015.26 71.1133L1010.55 71.5203L1011.02 76.9541L1015.52 76.5657ZM1022.56 81.9384C1022.19 81.9703 1021.89 81.8935 1021.67 81.7078C1021.45 81.5101 1021.32 81.226 1021.29 80.8553L1020.31 69.4856L1028.74 68.7583L1028.84 69.906L1021.74 70.5188L1022.12 74.9304L1028.68 74.3641L1028.78 75.5118L1022.22 76.0781L1022.62 80.7767L1029.72 80.1639L1029.82 81.3117L1022.56 81.9384ZM1035.37 80.9776C1034.65 81.0395 1034 80.9447 1033.43 80.6933C1032.85 80.4299 1032.38 80.0366 1032.03 79.5135C1031.68 78.9774 1031.47 78.3447 1031.41 77.6154L1032.7 77.504C1032.77 78.2452 1033.03 78.8304 1033.5 79.2595C1033.99 79.6757 1034.59 79.8528 1035.3 79.7909L1037.29 79.6191C1038 79.5583 1038.55 79.3539 1038.96 79.0059C1039.36 78.6459 1039.54 78.2089 1039.49 77.6948L1039.39 76.5471C1039.36 76.1406 1039.17 75.8078 1038.82 75.5487C1038.49 75.2886 1038.04 75.1405 1037.48 75.1042L1034.21 74.8447C1033.29 74.7677 1032.55 74.5058 1032.01 74.0589C1031.46 73.6121 1031.16 73.018 1031.09 72.2768L1031.01 71.3084C1030.94 70.4356 1031.2 69.7143 1031.8 69.1446C1032.41 68.5618 1033.26 68.224 1034.33 68.1311L1036.36 67.9563C1037.38 67.8686 1038.22 68.1088 1038.9 68.6768C1039.57 69.2329 1039.95 70.0131 1040.04 71.0173L1038.75 71.1288C1038.69 70.4712 1038.45 69.9617 1038.04 69.6001C1037.62 69.2386 1037.09 69.0852 1036.46 69.1399L1034.43 69.3147C1033.75 69.3735 1033.22 69.5759 1032.84 69.9218C1032.46 70.2558 1032.29 70.6798 1032.34 71.1939L1032.42 72.1623C1032.46 72.5807 1032.64 72.9205 1032.96 73.1817C1033.3 73.4418 1033.74 73.5964 1034.28 73.6457L1037.54 73.9246C1038.49 74.0115 1039.24 74.2719 1039.8 74.7058C1040.35 75.1277 1040.66 75.7033 1040.72 76.4326L1040.82 77.5803C1040.9 78.4531 1040.62 79.1873 1040 79.7831C1039.38 80.3669 1038.52 80.7058 1037.43 80.7996L1035.37 80.9776ZM1047.11 79.9641C1046.31 80.0333 1045.59 79.9033 1044.93 79.5744C1044.29 79.2444 1043.76 78.7537 1043.36 78.1021C1042.96 77.4376 1042.73 76.657 1042.65 75.7603L1042.33 72.0302C1042.25 71.1335 1042.35 70.324 1042.62 69.6017C1042.91 68.8784 1043.35 68.3046 1043.94 67.8803C1044.54 67.4431 1045.25 67.1888 1046.08 67.1177L1047.98 66.9536C1048.76 66.8866 1049.45 66.9952 1050.07 67.2794C1050.69 67.5625 1051.19 67.9951 1051.57 68.577C1051.96 69.1578 1052.18 69.8428 1052.25 70.6318L1050.96 70.7432C1050.89 69.8944 1050.58 69.2341 1050.05 68.7623C1049.53 68.2775 1048.87 68.0692 1048.08 68.1372L1046.18 68.3013C1045.33 68.3745 1044.68 68.7441 1044.22 69.4102C1043.75 70.0643 1043.57 70.8994 1043.66 71.9157L1043.98 75.6458C1044.07 76.662 1044.39 77.4593 1044.94 78.0377C1045.5 78.6041 1046.19 78.8517 1047.01 78.7805L1048.95 78.6134C1049.76 78.5433 1050.39 78.2001 1050.83 77.584C1051.28 76.9668 1051.47 76.1919 1051.39 75.2594L1052.68 75.1479C1052.75 75.9968 1052.65 76.7644 1052.37 77.4509C1052.09 78.1254 1051.66 78.6682 1051.08 79.0795C1050.52 79.4898 1049.84 79.7289 1049.05 79.797L1047.11 79.9641ZM1054.15 66.5661L1060.24 66.04C1061.16 65.9606 1061.92 66.1601 1062.52 66.6387C1063.12 67.1043 1063.46 67.7616 1063.54 68.6104L1063.65 69.9196C1063.7 70.5532 1063.55 71.1326 1063.18 71.6579C1062.82 72.1712 1062.3 72.5589 1061.64 72.8209L1061.64 72.8388C1062.02 72.9992 1062.37 73.2762 1062.69 73.6699C1063.02 74.0625 1063.29 74.5152 1063.49 75.0278L1064.77 78.2963L1063.41 78.4139L1062.13 75.1454C1061.91 74.574 1061.58 74.1271 1061.13 73.8045C1060.69 73.4809 1060.23 73.3403 1059.74 73.3826L1056.1 73.6967L1056.56 79.005L1055.23 79.1195L1054.15 66.5661ZM1060.3 72.1417C1060.96 72.085 1061.47 71.8662 1061.83 71.4855C1062.21 71.0917 1062.37 70.6079 1062.32 70.0341L1062.2 68.6532C1062.16 68.175 1061.97 67.8063 1061.62 67.5472C1061.27 67.2882 1060.83 67.1813 1060.31 67.2267L1055.57 67.6352L1056 72.5131L1060.3 72.1417ZM1065.99 65.5442L1067.32 65.4297L1068.4 77.9831L1067.07 78.0976L1065.99 65.5442ZM1070.36 65.1668L1076.44 64.6423C1077.37 64.5618 1078.14 64.7603 1078.75 65.2379C1079.37 65.7144 1079.72 66.3831 1079.79 67.2439L1079.95 69.091C1080.03 70.0116 1079.79 70.7851 1079.23 71.4116C1078.67 72.0261 1077.89 72.3762 1076.9 72.4618L1072.36 72.8533L1072.77 77.6057L1071.45 77.7202L1070.36 65.1668ZM1076.76 71.2813C1077.37 71.2287 1077.85 71.0131 1078.19 70.6344C1078.53 70.2437 1078.67 69.7555 1078.62 69.1697L1078.46 67.3225C1078.42 66.8324 1078.22 66.4523 1077.86 66.1823C1077.51 65.8993 1077.06 65.7815 1076.51 65.829L1071.79 66.2359L1072.26 71.6697L1076.76 71.2813ZM1084.53 65.1009L1080.55 65.4445L1080.45 64.2967L1089.74 63.4952L1089.83 64.6429L1085.85 64.9864L1086.84 76.3921L1085.51 76.5066L1084.53 65.1009Z" fill="white"/>
<g clip-path="url(#clip3_1_50)">
<path d="M376.299 121.641L378.369 128.496L384.098 124.055L380.621 130.355L387.857 131.183L380.87 133.238L385.374 138.85L378.97 135.455L378.104 142.564L376.034 135.708L370.306 140.15L373.782 133.849L366.547 133.022L373.534 130.967L369.029 125.355L375.434 128.75L376.299 121.641Z" fill="#E94D35"/>
</g>
<path d="M265.628 147.395C264.827 147.464 264.099 147.334 263.445 147.005C262.802 146.675 262.278 146.184 261.872 145.532C261.478 144.868 261.242 144.087 261.164 143.191L260.842 139.461C260.765 138.564 260.864 137.754 261.139 137.032C261.426 136.309 261.864 135.735 262.454 135.311C263.054 134.873 263.767 134.619 264.592 134.548L266.493 134.384C267.27 134.317 267.966 134.426 268.581 134.71C269.207 134.993 269.708 135.425 270.084 136.007C270.471 136.588 270.699 137.273 270.767 138.062L269.476 138.174C269.403 137.325 269.099 136.664 268.564 136.193C268.041 135.708 267.384 135.5 266.595 135.568L264.694 135.732C263.845 135.805 263.191 136.175 262.73 136.841C262.269 137.495 262.082 138.33 262.17 139.346L262.491 143.076C262.579 144.092 262.901 144.89 263.457 145.468C264.011 146.034 264.701 146.282 265.526 146.211L267.463 146.044C268.276 145.974 268.903 145.63 269.343 145.014C269.796 144.397 269.982 143.622 269.902 142.69L271.193 142.578C271.266 143.427 271.164 144.195 270.886 144.881C270.607 145.556 270.178 146.099 269.599 146.51C269.032 146.92 268.354 147.159 267.565 147.227L265.628 147.395ZM276.965 146.416C276.248 146.478 275.601 146.383 275.025 146.132C274.449 145.869 273.981 145.475 273.623 144.952C273.275 144.416 273.07 143.783 273.007 143.054L274.298 142.943C274.362 143.684 274.63 144.269 275.1 144.698C275.582 145.114 276.181 145.292 276.899 145.23L278.889 145.058C279.595 144.997 280.149 144.793 280.553 144.445C280.955 144.085 281.134 143.648 281.09 143.134L280.991 141.986C280.956 141.579 280.765 141.247 280.417 140.987C280.081 140.727 279.635 140.579 279.078 140.543L275.803 140.283C274.881 140.206 274.148 139.945 273.604 139.498C273.059 139.051 272.755 138.457 272.691 137.716L272.608 136.747C272.532 135.874 272.795 135.153 273.396 134.583C274.009 134 274.853 133.663 275.929 133.57L277.955 133.395C278.971 133.307 279.817 133.547 280.493 134.116C281.167 134.672 281.547 135.452 281.634 136.456L280.343 136.567C280.286 135.91 280.049 135.4 279.633 135.039C279.216 134.677 278.691 134.524 278.057 134.579L276.031 134.753C275.349 134.812 274.819 135.015 274.439 135.361C274.058 135.694 273.89 136.119 273.935 136.633L274.018 137.601C274.054 138.019 274.234 138.359 274.558 138.62C274.893 138.88 275.334 139.035 275.881 139.084L279.139 139.363C280.086 139.45 280.837 139.711 281.392 140.145C281.946 140.566 282.255 141.142 282.318 141.871L282.417 143.019C282.492 143.892 282.218 144.626 281.595 145.222C280.971 145.806 280.115 146.144 279.027 146.238L276.965 146.416ZM288.208 145.446C287.491 145.508 286.844 145.413 286.269 145.162C285.692 144.898 285.224 144.505 284.866 143.982C284.519 143.446 284.314 142.813 284.251 142.084L285.542 141.973C285.606 142.714 285.873 143.299 286.344 143.728C286.825 144.144 287.425 144.321 288.142 144.259L290.133 144.088C290.838 144.027 291.393 143.822 291.796 143.474C292.199 143.115 292.378 142.678 292.333 142.163L292.234 141.016C292.199 140.609 292.008 140.276 291.66 140.017C291.325 139.757 290.878 139.609 290.321 139.573L287.047 139.313C286.125 139.236 285.392 138.974 284.847 138.528C284.303 138.081 283.998 137.487 283.935 136.745L283.851 135.777C283.776 134.904 284.039 134.183 284.64 133.613C285.252 133.03 286.096 132.693 287.172 132.6L289.199 132.425C290.215 132.337 291.061 132.577 291.736 133.145C292.41 133.701 292.791 134.482 292.877 135.486L291.586 135.597C291.529 134.94 291.293 134.43 290.876 134.069C290.46 133.707 289.934 133.554 289.301 133.608L287.274 133.783C286.593 133.842 286.062 134.044 285.683 134.39C285.302 134.724 285.134 135.148 285.178 135.662L285.262 136.631C285.298 137.049 285.478 137.389 285.801 137.65C286.137 137.91 286.578 138.065 287.124 138.114L290.382 138.393C291.329 138.48 292.08 138.741 292.636 139.174C293.19 139.596 293.498 140.172 293.561 140.901L293.66 142.049C293.736 142.922 293.462 143.656 292.839 144.252C292.215 144.836 291.359 145.174 290.271 145.268L288.208 145.446ZM302.164 137.593C302.736 137.797 303.196 138.107 303.545 138.522C303.894 138.938 304.094 139.444 304.146 140.042L304.208 140.759C304.292 141.74 304.032 142.563 303.427 143.23C302.821 143.884 301.98 144.258 300.904 144.351L299.165 144.501C298.471 144.561 297.843 144.464 297.279 144.212C296.714 143.947 296.259 143.553 295.912 143.029C295.578 142.504 295.38 141.883 295.318 141.165L296.609 141.054C296.673 141.795 296.928 142.375 297.373 142.794C297.83 143.201 298.393 143.375 299.063 143.317L300.802 143.167C301.484 143.108 302.011 142.87 302.385 142.452C302.77 142.034 302.935 141.508 302.881 140.874L302.819 140.157C302.761 139.487 302.515 139.008 302.081 138.721C301.657 138.42 301.075 138.302 300.334 138.366L298.433 138.53L298.334 137.382L300.235 137.218C300.892 137.161 301.386 136.95 301.716 136.584C302.057 136.217 302.201 135.717 302.146 135.084L302.084 134.366C302.036 133.804 301.812 133.372 301.412 133.069C301.025 132.765 300.532 132.639 299.934 132.691L298.195 132.841C297.549 132.897 297.049 133.169 296.693 133.657C296.337 134.134 296.191 134.742 296.255 135.484L294.928 135.598C294.866 134.881 294.955 134.235 295.194 133.66C295.446 133.084 295.821 132.624 296.322 132.28C296.821 131.924 297.411 131.716 298.093 131.657L299.832 131.507C300.837 131.421 301.661 131.627 302.306 132.125C302.964 132.622 303.332 133.331 303.411 134.252L303.473 134.969C303.522 135.531 303.427 136.039 303.189 136.493C302.963 136.946 302.622 137.313 302.164 137.593ZM314.688 143.161C313.971 143.223 313.324 143.129 312.748 142.877C312.172 142.614 311.704 142.22 311.346 141.697C310.998 141.161 310.793 140.528 310.73 139.799L312.022 139.688C312.086 140.429 312.353 141.014 312.823 141.443C313.305 141.859 313.904 142.037 314.622 141.975L316.612 141.803C317.318 141.742 317.872 141.538 318.276 141.19C318.678 140.83 318.857 140.393 318.813 139.879L318.714 138.731C318.679 138.324 318.488 137.992 318.14 137.733C317.805 137.472 317.358 137.324 316.801 137.288L313.527 137.029C312.605 136.952 311.871 136.69 311.327 136.243C310.782 135.796 310.478 135.202 310.414 134.461L310.331 133.492C310.255 132.619 310.518 131.898 311.12 131.328C311.732 130.746 312.576 130.408 313.652 130.315L315.678 130.14C316.695 130.052 317.54 130.293 318.216 130.861C318.89 131.417 319.27 132.197 319.357 133.201L318.066 133.313C318.009 132.655 317.772 132.145 317.356 131.784C316.939 131.422 316.414 131.269 315.78 131.324L313.754 131.499C313.073 131.557 312.542 131.76 312.162 132.106C311.782 132.44 311.613 132.864 311.658 133.378L311.741 134.346C311.777 134.765 311.957 135.104 312.281 135.365C312.617 135.626 313.057 135.78 313.604 135.829L316.862 136.108C317.809 136.195 318.56 136.456 319.115 136.89C319.67 137.311 319.978 137.887 320.041 138.616L320.14 139.764C320.215 140.637 319.942 141.371 319.319 141.967C318.694 142.551 317.838 142.89 316.75 142.983L314.688 143.161ZM326.434 142.148C325.633 142.217 324.905 142.087 324.25 141.758C323.607 141.428 323.083 140.937 322.678 140.286C322.283 139.621 322.047 138.841 321.97 137.944L321.648 134.214C321.57 133.317 321.669 132.508 321.944 131.785C322.231 131.062 322.669 130.488 323.259 130.064C323.86 129.627 324.572 129.373 325.397 129.301L327.298 129.137C328.075 129.07 328.771 129.179 329.386 129.463C330.013 129.746 330.514 130.179 330.889 130.761C331.277 131.342 331.504 132.027 331.572 132.816L330.281 132.927C330.208 132.078 329.904 131.418 329.369 130.946C328.846 130.461 328.19 130.253 327.4 130.321L325.5 130.485C324.651 130.558 323.996 130.928 323.536 131.594C323.074 132.248 322.887 133.083 322.975 134.099L323.297 137.83C323.384 138.846 323.706 139.643 324.262 140.221C324.817 140.788 325.507 141.036 326.331 140.964L328.268 140.797C329.081 140.727 329.708 140.384 330.149 139.768C330.601 139.151 330.787 138.376 330.707 137.443L331.998 137.332C332.071 138.181 331.969 138.948 331.691 139.635C331.412 140.309 330.983 140.852 330.404 141.263C329.837 141.674 329.159 141.913 328.37 141.981L326.434 142.148ZM337.77 141.17C337.053 141.232 336.406 141.137 335.831 140.885C335.254 140.622 334.786 140.229 334.428 139.706C334.081 139.17 333.876 138.537 333.813 137.808L335.104 137.696C335.168 138.437 335.435 139.023 335.906 139.452C336.387 139.868 336.987 140.045 337.704 139.983L339.695 139.811C340.4 139.75 340.954 139.546 341.358 139.198C341.761 138.838 341.94 138.401 341.895 137.887L341.796 136.739C341.761 136.333 341.57 136 341.222 135.741C340.887 135.481 340.44 135.333 339.883 135.296L336.609 135.037C335.687 134.96 334.953 134.698 334.409 134.251C333.865 133.804 333.56 133.21 333.496 132.469L333.413 131.501C333.338 130.628 333.601 129.906 334.202 129.337C334.814 128.754 335.658 128.416 336.734 128.323L338.761 128.148C339.777 128.061 340.623 128.301 341.298 128.869C341.972 129.425 342.353 130.205 342.439 131.209L341.148 131.321C341.091 130.663 340.855 130.154 340.438 129.792C340.021 129.431 339.496 129.277 338.863 129.332L336.836 129.507C336.155 129.566 335.624 129.768 335.244 130.114C334.864 130.448 334.696 130.872 334.74 131.386L334.824 132.354C334.86 132.773 335.04 133.113 335.363 133.374C335.699 133.634 336.14 133.789 336.686 133.838L339.944 134.117C340.891 134.204 341.642 134.464 342.197 134.898C342.752 135.32 343.06 135.895 343.123 136.625L343.222 137.772C343.298 138.645 343.024 139.379 342.401 139.975C341.777 140.559 340.921 140.898 339.833 140.992L337.77 141.17ZM349.014 140.2C348.296 140.262 347.65 140.167 347.074 139.915C346.497 139.652 346.03 139.259 345.671 138.736C345.324 138.199 345.119 137.567 345.056 136.837L346.347 136.726C346.411 137.467 346.678 138.052 347.149 138.482C347.631 138.898 348.23 139.075 348.947 139.013L350.938 138.841C351.643 138.78 352.198 138.576 352.601 138.228C353.004 137.868 353.183 137.431 353.139 136.917L353.04 135.769C353.005 135.363 352.813 135.03 352.466 134.771C352.13 134.511 351.684 134.362 351.127 134.326L347.852 134.067C346.93 133.99 346.197 133.728 345.652 133.281C345.108 132.834 344.804 132.24 344.74 131.499L344.656 130.53C344.581 129.658 344.844 128.936 345.445 128.367C346.057 127.784 346.901 127.446 347.977 127.353L350.004 127.178C351.02 127.091 351.866 127.331 352.541 127.899C353.216 128.455 353.596 129.235 353.683 130.239L352.391 130.351C352.335 129.693 352.098 129.184 351.681 128.822C351.265 128.461 350.74 128.307 350.106 128.362L348.08 128.537C347.398 128.596 346.868 128.798 346.488 129.144C346.107 129.478 345.939 129.902 345.983 130.416L346.067 131.384C346.103 131.803 346.283 132.143 346.607 132.404C346.942 132.664 347.383 132.818 347.929 132.868L351.187 133.147C352.134 133.234 352.886 133.494 353.441 133.928C353.995 134.35 354.304 134.925 354.367 135.655L354.466 136.802C354.541 137.675 354.267 138.409 353.644 139.005C353.02 139.589 352.164 139.928 351.076 140.022L349.014 140.2Z" fill="white"/>
<g clip-path="url(#clip4_1_50)">
<path d="M893.83 76.9863L895.9 83.8414L901.628 79.4002L898.152 85.7004L905.387 86.528L898.401 88.5828L902.905 94.1945L896.5 90.8001L895.635 97.9085L893.565 91.0534L887.836 95.4947L891.313 89.1944L884.077 88.3668L891.064 86.312L886.56 80.7004L892.964 84.0947L893.83 76.9863Z" fill="#E94D35"/>
</g>
<path d="M721.315 108.076C720.634 108.134 720.022 108.019 719.479 107.728C718.935 107.426 718.493 106.982 718.153 106.397C717.813 105.8 717.608 105.101 717.539 104.3L718.866 104.186C718.941 105.059 719.193 105.741 719.621 106.234C720.049 106.728 720.58 106.947 721.213 106.892L722.773 106.757C723.443 106.7 723.945 106.379 724.28 105.796C724.616 105.213 724.741 104.432 724.656 103.451L723.932 95.0585L725.259 94.944L725.983 103.337C726.1 104.688 725.886 105.772 725.343 106.59C724.798 107.396 723.975 107.846 722.876 107.941L721.315 108.076ZM735.347 103.215L729.841 103.69L728.85 107.281L727.487 107.399L731.228 94.4289L731.838 94.3763C732.233 94.3423 732.54 94.5566 732.761 95.0194L736.148 102.026L736.165 102.025L736.169 102.06L738.301 106.465L736.938 106.583L735.347 103.215ZM730.158 102.543L734.838 102.139L731.969 96.0995L731.951 96.101L730.158 102.543ZM742.689 106.087C742.462 106.106 742.265 106.057 742.098 105.939C741.943 105.82 741.8 105.622 741.667 105.344L736.369 93.9854L737.732 93.8678L742.587 104.488L742.605 104.486L745.587 93.19L746.95 93.0724L743.37 106.028L742.689 106.087ZM755.031 101.517L749.526 101.992L748.535 105.582L747.172 105.7L750.913 92.7304L751.523 92.6778C751.917 92.6438 752.225 92.8581 752.445 93.3209L755.832 100.328L755.85 100.326L755.853 100.362L757.986 104.767L756.623 104.885L755.031 101.517ZM749.842 100.845L754.523 100.441L751.653 94.401L751.635 94.4025L749.842 100.845ZM762.731 104.502C762.013 104.564 761.367 104.469 760.791 104.218C760.214 103.954 759.747 103.561 759.388 103.038C759.041 102.502 758.836 101.869 758.773 101.14L760.064 101.028C760.128 101.77 760.395 102.355 760.866 102.784C761.347 103.2 761.947 103.377 762.664 103.315L764.655 103.144C765.36 103.083 765.915 102.878 766.318 102.53C766.721 102.17 766.9 101.733 766.856 101.219L766.757 100.072C766.721 99.6651 766.53 99.3323 766.183 99.0733C765.847 98.8131 765.401 98.665 764.843 98.6287L761.569 98.3693C760.647 98.2922 759.914 98.0303 759.369 97.5835C758.825 97.1366 758.521 96.5426 758.457 95.8013L758.373 94.8329C758.298 93.9601 758.561 93.2389 759.162 92.6691C759.774 92.0863 760.618 91.7485 761.694 91.6556L763.721 91.4808C764.737 91.3931 765.583 91.6333 766.258 92.2013C766.932 92.7574 767.313 93.5376 767.4 94.5419L766.108 94.6533C766.052 93.9957 765.815 93.4862 765.398 93.1247C764.982 92.7631 764.457 92.6097 763.823 92.6644L761.796 92.8392C761.115 92.898 760.584 93.1004 760.205 93.4463C759.824 93.7803 759.656 94.2043 759.7 94.7184L759.784 95.6868C759.82 96.1052 760 96.445 760.323 96.7062C760.659 96.9663 761.1 97.121 761.646 97.1702L764.904 97.4491C765.851 97.5361 766.602 97.7964 767.158 98.2303C767.712 98.6522 768.021 99.2278 768.084 99.9571L768.183 101.105C768.258 101.978 767.984 102.712 767.361 103.308C766.737 103.891 765.881 104.23 764.793 104.324L762.731 104.502ZM774.476 103.489C773.675 103.558 772.947 103.428 772.292 103.099C771.65 102.769 771.126 102.278 770.72 101.627C770.325 100.962 770.089 100.182 770.012 99.2848L769.69 95.5547C769.613 94.658 769.712 93.8485 769.987 93.1262C770.273 92.4029 770.712 91.8291 771.301 91.4048C771.902 90.9676 772.615 90.7134 773.44 90.6422L775.341 90.4782C776.118 90.4111 776.814 90.5197 777.429 90.8039C778.055 91.0871 778.556 91.5196 778.932 92.1015C779.319 92.6823 779.547 93.3673 779.615 94.1564L778.324 94.2678C778.25 93.4189 777.946 92.7586 777.412 92.2868C776.888 91.802 776.232 91.5937 775.443 91.6618L773.542 91.8258C772.693 91.899 772.038 92.2687 771.578 92.9347C771.117 93.5888 770.93 94.424 771.017 95.4402L771.339 99.1703C771.427 100.187 771.749 100.984 772.304 101.562C772.859 102.129 773.549 102.376 774.374 102.305L776.311 102.138C777.124 102.068 777.751 101.725 778.191 101.108C778.644 100.491 778.83 99.7164 778.749 98.7839L780.041 98.6725C780.114 99.5213 780.011 100.289 779.733 100.975C779.454 101.65 779.025 102.193 778.447 102.604C777.88 103.014 777.202 103.253 776.413 103.322L774.476 103.489ZM781.507 90.0906L787.604 89.5645C788.525 89.4851 789.283 89.6847 789.878 90.1633C790.485 90.6289 790.824 91.2861 790.898 92.1349L791.011 93.4441C791.065 94.0777 790.91 94.6572 790.546 95.1824C790.181 95.6957 789.666 96.0834 789.003 96.3454L789.004 96.3634C789.379 96.5237 789.728 96.8007 790.051 97.1944C790.386 97.5871 790.654 98.0397 790.855 98.5524L792.131 101.821L790.768 101.938L789.492 98.67C789.274 98.0986 788.941 97.6516 788.491 97.329C788.054 97.0054 787.59 96.8648 787.1 96.9071L783.459 97.2212L783.917 102.529L782.59 102.644L781.507 90.0906ZM787.661 95.6662C788.319 95.6095 788.83 95.3908 789.194 95.01C789.57 94.6163 789.733 94.1325 789.683 93.5586L789.564 92.1777C789.523 91.6995 789.329 91.3308 788.981 91.0718C788.634 90.8127 788.197 90.7058 787.671 90.7512L782.936 91.1597L783.357 96.0376L787.661 95.6662ZM793.35 89.0688L794.677 88.9543L795.76 101.508L794.433 101.622L793.35 89.0688ZM797.724 88.6913L803.804 88.1668C804.736 88.0863 805.506 88.2849 806.113 88.7624C806.733 89.239 807.079 89.9076 807.154 90.7684L807.313 92.6156C807.392 93.5361 807.152 94.3097 806.592 94.9361C806.031 95.5507 805.254 95.9007 804.262 95.9864L799.724 96.3779L800.134 101.13L798.807 101.245L797.724 88.6913ZM804.124 94.8059C804.733 94.7532 805.208 94.5376 805.549 94.1589C805.889 93.7683 806.033 93.28 805.983 92.6942L805.823 90.8471C805.781 90.3569 805.58 89.9768 805.219 89.7068C804.87 89.4238 804.42 89.306 803.87 89.3535L799.153 89.7604L799.622 95.1942L804.124 94.8059ZM811.888 88.6255L807.907 88.969L807.808 87.8212L817.098 87.0197L817.197 88.1674L813.216 88.511L814.2 99.9166L812.873 100.031L811.888 88.6255ZM823.731 86.4473L829.828 85.9212C830.749 85.8418 831.507 86.0414 832.102 86.52C832.709 86.9856 833.048 87.6428 833.122 88.4917L833.235 89.8008C833.289 90.4344 833.134 91.0139 832.77 91.5391C832.405 92.0524 831.89 92.4401 831.227 92.7021L831.228 92.7201C831.603 92.8804 831.952 93.1574 832.275 93.5511C832.61 93.9438 832.878 94.3964 833.079 94.9091L834.355 98.1775L832.992 98.2951L831.716 95.0267C831.498 94.4553 831.165 94.0083 830.715 93.6857C830.278 93.3622 829.814 93.2215 829.324 93.2638L825.683 93.5779L826.141 98.8862L824.814 99.0007L823.731 86.4473ZM829.885 92.0229C830.543 91.9662 831.054 91.7475 831.418 91.3667C831.794 90.973 831.957 90.4892 831.907 89.9153L831.788 88.5344C831.747 88.0562 831.553 87.6876 831.205 87.4285C830.858 87.1694 830.421 87.0625 829.895 87.1079L825.16 87.5164L825.581 92.3943L829.885 92.0229ZM839.225 91.3074L834.426 85.5245L835.915 85.3961L839.884 90.1484L842.981 84.7864L844.451 84.6595L840.714 91.1789L845.714 97.1974L844.225 97.3258L840.071 92.3184L836.819 97.9649L835.33 98.0933L839.225 91.3074ZM849.581 97.0082C848.899 97.067 848.287 96.9512 847.744 96.6608C847.2 96.3585 846.759 95.9148 846.419 95.3299C846.078 94.7329 845.874 94.0339 845.804 93.2329L847.132 93.1184C847.207 93.9912 847.458 94.6741 847.886 95.1671C848.314 95.6601 848.845 95.8793 849.479 95.8246L851.039 95.69C851.709 95.6323 852.211 95.3119 852.546 94.7289C852.881 94.1459 853.006 93.3643 852.922 92.3839L852.198 83.9911L853.525 83.8766L854.249 92.2694C854.365 93.6204 854.152 94.7048 853.608 95.5225C853.063 96.3284 852.241 96.7787 851.141 96.8736L849.581 97.0082ZM860.558 96.0611C859.841 96.123 859.195 96.0282 858.619 95.7767C858.042 95.5134 857.574 95.1201 857.216 94.597C856.869 94.0608 856.664 93.4281 856.601 92.6988L857.892 92.5874C857.956 93.3287 858.223 93.9139 858.694 94.343C859.175 94.7591 859.775 94.9363 860.492 94.8744L862.483 94.7026C863.188 94.6417 863.743 94.4373 864.146 94.0893C864.549 93.7294 864.728 93.2924 864.683 92.7783L864.584 91.6306C864.549 91.2241 864.358 90.8913 864.011 90.6322C863.675 90.3721 863.229 90.2239 862.671 90.1877L859.397 89.9282C858.475 89.8512 857.742 89.5892 857.197 89.1424C856.653 88.6955 856.349 88.1015 856.285 87.3602L856.201 86.3918C856.126 85.5191 856.389 84.7978 856.99 84.228C857.602 83.6452 858.446 83.3074 859.522 83.2146L861.549 83.0397C862.565 82.952 863.411 83.1922 864.086 83.7603C864.76 84.3164 865.141 85.0965 865.227 86.1008L863.936 86.2122C863.88 85.5547 863.643 85.0451 863.226 84.6836C862.81 84.3221 862.284 84.1686 861.651 84.2233L859.624 84.3982C858.943 84.457 858.412 84.6593 858.033 85.0053C857.652 85.3392 857.484 85.7632 857.528 86.2773L857.612 87.2457C857.648 87.6642 857.828 88.004 858.151 88.2651C858.487 88.5252 858.928 88.6799 859.474 88.7291L862.732 89.0081C863.679 89.095 864.43 89.3554 864.986 89.7892C865.54 90.2112 865.849 90.7868 865.912 91.516L866.011 92.6638C866.086 93.5365 865.812 94.2708 865.189 94.8666C864.565 95.4504 863.709 95.7892 862.621 95.8831L860.558 96.0611Z" fill="white"/>
<g clip-path="url(#clip5_1_50)">
<path d="M1132.13 54.4174L1134.2 61.2725L1139.93 56.8313L1136.45 63.1315L1143.69 63.9591L1136.7 66.0139L1141.2 71.6256L1134.8 68.2312L1133.93 75.3396L1131.86 68.4845L1126.13 72.9258L1129.61 66.6255L1122.38 65.7979L1129.36 63.7431L1124.86 58.1314L1131.26 61.5258L1132.13 54.4174Z" fill="#E94D35"/>
</g>
<path d="M1376.18 50.4224C1375.83 50.4523 1375.54 50.369 1375.31 50.1723C1375.08 49.9757 1374.95 49.704 1374.92 49.3573L1373.93 37.9696L1379.24 37.5116C1380.3 37.4198 1381.18 37.6031 1381.87 38.0615C1382.57 38.5069 1382.96 39.148 1383.03 39.9849L1383.11 40.9354C1383.15 41.3777 1383.09 41.8109 1382.92 42.235C1382.75 42.647 1382.5 42.9881 1382.16 43.2581L1382.16 43.2761C1382.76 43.381 1383.25 43.6456 1383.64 44.07C1384.03 44.4814 1384.26 44.986 1384.31 45.5838L1384.38 46.4446C1384.47 47.4249 1384.23 48.2408 1383.66 48.8922C1383.08 49.5317 1382.27 49.8973 1381.2 49.9892L1376.18 50.4224ZM1380.09 43.1476C1380.65 43.0991 1381.08 42.8871 1381.39 42.5115C1381.7 42.1229 1381.84 41.6357 1381.79 41.0499L1381.7 40.0994C1381.66 39.6212 1381.42 39.2567 1380.98 39.0058C1380.55 38.742 1380 38.6385 1379.34 38.6952L1375.36 39.0387L1375.75 43.5221L1380.09 43.1476ZM1380.92 48.821C1381.64 48.7591 1382.18 48.5253 1382.56 48.1196C1382.94 47.701 1383.11 47.1808 1383.06 46.5591L1382.98 45.6983C1382.94 45.1961 1382.73 44.8111 1382.34 44.5432C1381.96 44.2633 1381.47 44.1486 1380.88 44.1991L1375.84 44.634L1376.24 49.2249L1380.92 48.821ZM1388.06 49.3979C1387.68 49.4299 1387.39 49.353 1387.17 49.1673C1386.95 48.9696 1386.82 48.6855 1386.79 48.3149L1385.81 36.9451L1394.24 36.2178L1394.33 37.3656L1387.23 37.9783L1387.61 42.3899L1394.18 41.8236L1394.28 42.9713L1387.71 43.5377L1388.12 48.2362L1395.22 47.6235L1395.32 48.7712L1388.06 49.3979ZM1396.56 36.0173L1397.83 35.9074L1403.04 43.8596L1406.67 35.1446L1407.95 35.0347L1409.03 47.5881L1407.72 47.701L1406.85 37.6225L1403.82 44.8215C1403.71 45.0719 1403.61 45.2491 1403.53 45.353C1403.44 45.4449 1403.33 45.4961 1403.21 45.5064L1402.82 45.5404L1398.08 38.3791L1398.95 48.4577L1397.64 48.5706L1396.56 36.0173Z" fill="white"/>
<g clip-path="url(#clip6_1_50)">
<path d="M1303.62 39.6199L1305.69 46.4751L1311.42 42.0338L1307.95 48.3341L1315.18 49.1617L1308.19 51.2165L1312.7 56.8281L1306.29 53.4338L1305.43 60.5422L1303.36 53.6871L1297.63 58.1283L1301.11 51.8281L1293.87 51.0004L1300.86 48.9457L1296.35 43.334L1302.76 46.7284L1303.62 39.6199Z" fill="#E94D35"/>
</g>
<path d="M1205.13 61.147L1199.62 61.6221L1198.63 65.2126L1197.27 65.3302L1201.01 52.3606L1201.62 52.3079C1202.01 52.2739 1202.32 52.4883 1202.54 52.951L1205.93 59.9578L1205.95 59.9562L1205.95 59.9921L1208.08 64.3971L1206.72 64.5147L1205.13 61.147ZM1199.94 60.4746L1204.62 60.0707L1201.75 54.0311L1201.73 54.0326L1199.94 60.4746ZM1208.84 51.6852L1210.09 51.5769L1217.95 61.4316L1217.05 50.9765L1218.34 50.8651L1219.42 63.4184L1218.17 63.5267L1210.32 53.7437L1211.21 64.1271L1209.92 64.2385L1208.84 51.6852ZM1226.06 62.9903C1225.24 63.0614 1224.5 62.9385 1223.84 62.6215C1223.2 62.2916 1222.68 61.7948 1222.27 61.1313C1221.88 60.4668 1221.64 59.6862 1221.56 58.7895L1221.24 55.0594C1221.16 54.1627 1221.27 53.3587 1221.56 52.6473C1221.86 51.9229 1222.31 51.3421 1222.91 50.9049C1223.51 50.4676 1224.22 50.2134 1225.04 50.1422L1226.94 49.9782C1227.73 49.9101 1228.44 50.0177 1229.07 50.3008C1229.71 50.583 1230.22 51.0145 1230.61 51.5953C1230.99 52.1762 1231.22 52.8611 1231.29 53.6502L1230 53.7616C1229.93 52.9128 1229.62 52.253 1229.07 51.7822C1228.53 51.2985 1227.86 51.0917 1227.05 51.1618L1225.15 51.3258C1224.29 51.4001 1223.62 51.7708 1223.15 52.4379C1222.67 53.093 1222.48 53.9287 1222.57 54.9449L1222.89 58.675C1222.98 59.6912 1223.3 60.4885 1223.85 61.0669C1224.42 61.6323 1225.12 61.8789 1225.96 61.8066L1227.9 61.6395C1228.75 61.5663 1229.41 61.2141 1229.88 60.5828C1230.36 59.9516 1230.56 59.1578 1230.47 58.2014L1230.38 57.1254L1226.9 57.4255L1226.8 56.2599L1231.57 55.8483L1231.76 58.0899C1231.84 58.9508 1231.73 59.7309 1231.44 60.4303C1231.16 61.1167 1230.72 61.6726 1230.12 62.0979C1229.53 62.5102 1228.82 62.752 1228 62.8231L1226.06 62.9903ZM1238.38 61.9278C1237.61 61.9939 1236.92 61.8848 1236.31 61.6006C1235.69 61.3044 1235.19 60.8594 1234.82 60.2655C1234.44 59.6598 1234.22 58.9504 1234.15 58.1374L1233.41 49.5652L1234.73 49.4507L1235.48 58.0588C1235.55 58.9315 1235.85 59.6168 1236.36 60.1145C1236.87 60.6004 1237.51 60.8103 1238.27 60.7442L1240.21 60.5771C1240.98 60.5111 1241.57 60.1949 1241.99 59.6287C1242.41 59.0504 1242.58 58.3249 1242.51 57.4522L1241.76 48.8442L1243.09 48.7297L1243.83 57.3018C1243.9 58.1148 1243.8 58.852 1243.53 59.5135C1243.26 60.1631 1242.85 60.6865 1242.3 61.0837C1241.74 61.469 1241.08 61.6947 1240.31 61.7607L1238.38 61.9278ZM1248.14 60.9405C1247.77 60.9724 1247.48 60.8956 1247.26 60.7099C1247.04 60.5242 1246.91 60.246 1246.88 59.8754L1245.89 48.4877L1247.22 48.3732L1248.2 59.7429L1255.02 59.1549L1255.12 60.3385L1248.14 60.9405ZM1263.83 56.0818L1258.33 56.5568L1257.34 60.1473L1255.97 60.2649L1259.71 47.2953L1260.32 47.2427C1260.72 47.2087 1261.03 47.423 1261.25 47.8858L1264.63 54.8925L1264.65 54.891L1264.65 54.9269L1266.79 59.3318L1265.42 59.4494L1263.83 56.0818ZM1258.64 55.4094L1263.32 55.0055L1260.45 48.9659L1260.44 48.9674L1258.64 55.4094ZM1267.54 46.6199L1273.64 46.0938C1274.56 46.0144 1275.32 46.214 1275.91 46.6926C1276.52 47.1582 1276.86 47.8154 1276.93 48.6643L1277.04 49.9734C1277.1 50.607 1276.94 51.1865 1276.58 51.7117C1276.21 52.225 1275.7 52.6127 1275.04 52.8747L1275.04 52.8927C1275.41 53.053 1275.76 53.33 1276.09 53.7237C1276.42 54.1164 1276.69 54.569 1276.89 55.0817L1278.16 58.3501L1276.8 58.4677L1275.53 55.1993C1275.31 54.6279 1274.97 54.1809 1274.52 53.8583C1274.09 53.5348 1273.62 53.3941 1273.13 53.4364L1269.49 53.7505L1269.95 59.0588L1268.62 59.1733L1267.54 46.6199ZM1273.69 52.1955C1274.35 52.1388 1274.86 51.9201 1275.23 51.5393C1275.6 51.1456 1275.77 50.6618 1275.72 50.0879L1275.6 48.707C1275.56 48.2288 1275.36 47.8601 1275.01 47.6011C1274.67 47.342 1274.23 47.2351 1273.7 47.2805L1268.97 47.689L1269.39 52.5669L1273.69 52.1955Z" fill="white"/>
</g>
<defs>
<clipPath id="clip0_1_50">
<rect width="1466.69" height="64" fill="white" transform="translate(-11.2117 126.974) rotate(-4.93154)"/>
</clipPath>
<clipPath id="clip1_1_50">
<rect width="21.3893" height="21" fill="white" transform="translate(167.593 137.642) rotate(-4.93154)"/>
</clipPath>
<clipPath id="clip2_1_50">
<rect width="21.3893" height="21" fill="white" transform="translate(625.424 100.146) rotate(-4.93154)"/>
</clipPath>
<clipPath id="clip3_1_50">
<rect width="21.3893" height="21" fill="white" transform="translate(365.644 122.561) rotate(-4.93154)"/>
</clipPath>
<clipPath id="clip4_1_50">
<rect width="21.3893" height="21" fill="white" transform="translate(883.175 77.9056) rotate(-4.93154)"/>
</clipPath>
<clipPath id="clip5_1_50">
<rect width="21.3893" height="21" fill="white" transform="translate(1121.39 54.3405) rotate(-4.93154)"/>
</clipPath>
<clipPath id="clip6_1_50">
<rect width="21.3893" height="21" fill="white" transform="translate(1292.97 40.5393) rotate(-4.93154)"/>
</clipPath>
</defs>
</svg>
